<?xml version="1.0" encoding="UTF-8" standalone="no"?>
<!-- Created with Inkscape (http://www.inkscape.org/) -->

<svg
   xmlns:dc="http://purl.org/dc/elements/1.1/"
   xmlns:cc="http://creativecommons.org/ns#"
   xmlns:rdf="http://www.w3.org/1999/02/22-rdf-syntax-ns#"
   xmlns:svg="http://www.w3.org/2000/svg"
   xmlns="http://www.w3.org/2000/svg"
   xmlns:xlink="http://www.w3.org/1999/xlink"
   xmlns:sodipodi="http://sodipodi.sourceforge.net/DTD/sodipodi-0.dtd"
   xmlns:inkscape="http://www.inkscape.org/namespaces/inkscape"
   width="500pt"
   height="400pt"
   id="svg3305"
   sodipodi:version="0.32"
   inkscape:version="0.47pre4 r22446"
   sodipodi:docname="8 strokes of 永.svg"
   version="1.0"
   inkscape:export-filename="C:\Documents and Settings\mn3mo\Bureau\nouveau..png"
   inkscape:export-xdpi="90"
   inkscape:export-ydpi="90"
   inkscape:output_extension="org.inkscape.output.svg.inkscape">
  <defs
     id="defs3">
    <marker
       inkscape:stockid="Arrow2Mend"
       orient="auto"
       refY="0.0"
       refX="0.0"
       id="Arrow2Mend"
       style="overflow:visible;">
      <path
         id="path3709"
         style="font-size:12.0;fill-rule:evenodd;stroke-width:0.62500000;stroke-linejoin:round;"
         d="M 8.7185878,4.0337352 L -2.2072895,0.016013256 L 8.7185884,-4.0017078 C 6.9730900,-1.6296469 6.9831476,1.6157441 8.7185878,4.0337352 z "
         transform="scale(0.6) rotate(180) translate(0,0)" />
    </marker>
    <linearGradient
       inkscape:collect="always"
       id="linearGradient2498">
      <stop
         style="stop-color:#000000;stop-opacity:1;"
         offset="0"
         id="stop2500" />
      <stop
         style="stop-color:#000000;stop-opacity:0;"
         offset="1"
         id="stop2502" />
    </linearGradient>
    <linearGradient
       inkscape:collect="always"
       xlink:href="#linearGradient2498"
       id="linearGradient2504"
       x1="196.08261"
       y1="465.37534"
       x2="195.85356"
       y2="437.79044"
       gradientUnits="userSpaceOnUse"
       gradientTransform="matrix(1.700523,0,0,1.700523,-128.962,-385.0816)" />
  </defs>
  <sodipodi:namedview
     inkscape:document-units="mm"
     id="base"
     pagecolor="#ffffff"
     bordercolor="#666666"
     borderopacity="1.0"
     inkscape:pageopacity="0.0"
     inkscape:pageshadow="2"
     inkscape:zoom="1.172"
     inkscape:cx="297.56826"
     inkscape:cy="394.17811"
     inkscape:current-layer="layer1"
     inkscape:window-width="1024"
     inkscape:window-height="726"
     inkscape:window-x="0"
     inkscape:window-y="0"
     showgrid="false"
     inkscape:window-maximized="0" />
  <metadata
     id="metadata4">
    <rdf:RDF>
      <cc:Work
         rdf:about="">
        <dc:format>image/svg+xml</dc:format>
        <dc:type
           rdf:resource="http://purl.org/dc/dcmitype/StillImage" />
      </cc:Work>
    </rdf:RDF>
  </metadata>
  <g
     inkscape:label="Layer 1"
     inkscape:groupmode="layer"
     id="layer1">
    <path
       d="M 282.48606,111.62234 C 282.48606,111.62234 279.32459,105.36844 277.69857,104.96924 C 275.09736,104.33065 267.93655,104.09479 267.36176,103.70006 C 266.60915,103.18317 267.89683,101.87293 271.99279,97.41479 C 273.00616,96.3118 269.61696,93.413936 268.61794,92.848972 C 267.36052,92.137797 266.80156,91.02778 266.80156,89.241806 C 266.80156,87.040447 267.32808,86.401254 270.39003,84.884932 C 272.36374,83.907524 274.77368,83.107887 275.74551,83.107887 C 278.11059,83.107887 283.86231,84.925575 285.36902,86.14922 C 286.03502,86.690053 287.54648,87.657022 288.72795,88.298068 C 289.90932,88.939046 292.42094,91.174774 294.30925,93.266331 C 298.40896,97.80723 298.6592,100.81662 295.50039,107.5928 C 291.82719,115.47243 287.09703,116.93699 282.48606,111.62234 z "
       id="path2416"
       style="opacity:0.93155895;fill:#0000a6;fill-opacity:0.57205242"
       sodipodi:nodetypes="csssssssssssc" />
    <path
       d="M 243.13129,165.08436 C 241.30167,163.99115 238.69412,162.07743 237.33671,160.83165 C 235.97929,159.58582 233.81658,157.91693 232.53066,157.12294 C 231.24481,156.32896 229.01851,152.29419 229.01851,151.98391 C 229.01851,151.67363 231.99727,151.26025 235.63797,151.0653 C 242.6742,150.6885 248.64968,149.07223 260.83149,147.39117 C 264.69905,146.85744 272.16538,144.9346 275.67758,143.98286 C 280.14343,142.77272 282.65203,140.30178 284.02092,138.838 C 285.09751,137.6868 286.59435,136.49787 287.34716,136.1959 C 289.95962,135.14798 303.84477,140.64596 307.05187,143.99818 C 309.0306,146.06651 308.64106,152.4429 306.36299,155.27273 C 303.55374,158.76251 301.61475,158.92498 295.45802,156.18644 L 290.08687,153.79729 L 285.36313,155.0553 C 282.76503,155.74718 273.4998,159.06034 266.79232,161.20668 C 252.41543,165.80711 248.22041,168.12519 243.13129,165.08436 z "
       id="path2418"
       style="opacity:0.93155895;fill:#0000a6;fill-opacity:0.57205242"
       sodipodi:nodetypes="csssssssssscccsc" />
    <path
       d="M 279.15593,312.52415 C 277.05422,309.37257 272.50326,307.14193 269.81684,304.78278 C 267.13041,302.42364 264.93242,299.99133 264.93242,299.37768 C 264.93242,298.75859 267.16486,297.97381 269.9472,297.61473 C 279.50491,296.38122 281.66818,297.9209 283.33662,296.50253 C 284.90363,295.17039 284.98389,292.07367 284.56596,249.05139 C 284.32006,223.73709 283.83294,190.774 283.48355,175.80004 L 282.84825,148.57464 L 279.62743,145.49874 C 277.85597,143.80699 276.4066,141.87282 276.4066,141.20059 C 276.4066,138.62351 282.80642,134.83887 287.13959,134.85342 C 291.76241,134.86894 299.1908,137.40626 302.82103,140.20978 C 306.5688,143.10407 306.9859,146.5785 304.39694,153.33854 C 302.92692,157.17683 302.76696,164.40669 302.67696,231.07208 C 302.57902,303.62648 302.55191,304.62982 300.57031,308.92582 C 298.19025,314.08578 293.87155,326.21002 289.24134,328.26836 C 285.41223,329.9706 282.31033,317.2542 279.15593,312.52415 z "
       id="path2420"
       style="opacity:0.93155895;fill:#0000a6;fill-opacity:0.57205242"
       sodipodi:nodetypes="cssssscccssssssss" />
    <path
       d="M 208.47946,231.75892 C 202.20679,228.9462 195.82822,218.68212 197.73806,214.47453 C 198.92034,211.86998 202.40307,210.63423 205.09688,211.86352 C 206.79373,212.6378 207.99761,212.63415 210.70935,211.84644 C 216.76999,210.08598 237.12624,202.36195 245.00731,198.83232 C 247.86168,197.55395 261.64162,192.26636 262.11875,192.26636 C 264.36293,192.26636 256.35423,199.75893 241.74877,211.3236 C 239.52296,213.08608 236.21034,215.82984 234.38752,217.42085 C 226.79419,224.0485 218.36121,230.94692 216.72468,231.8695 C 214.44234,233.15627 211.50785,233.1169 208.47946,231.75892 z "
       id="path2422"
       style="opacity:0.93155895;fill:#0000a6;fill-opacity:0.57205242" />
    <path
       d="M 312.04024,209.54721 C 312.1,208.5696 314.95259,205.93613 319.06224,202.68145 C 325.12451,197.88038 325.25866,196.83567 336.40189,187.78992 C 350.18924,176.59778 352.54605,174.31784 355.21477,169.59052 C 358.3313,164.07004 363.82465,163.18094 369.43724,165.85477 C 382.08504,171.88011 386.55117,174.53254 386.04998,182.73322 C 385.6204,189.76713 382.97394,190.37923 375.44154,189.26732 C 367.93336,188.15897 361.71422,192.29352 346.12219,200.29294 C 338.06799,204.42499 328.72637,209.50102 321.68994,210.67965 C 313.71758,212.01501 311.9025,211.80203 312.04024,209.54721 z "
       id="path2424"
       style="opacity:0.93155895;fill:#0000a6;fill-opacity:0.57205242"
       sodipodi:nodetypes="cssssssssc" />
    <path
       d="M 287.14092,201.10115 C 285.20776,196.74972 289.83193,194.25192 293.89863,194.25192 C 296.98908,194.25192 301.1451,194.51866 303.98187,196.95277 C 306.67444,199.26316 316.36966,210.25559 321.38747,217.47125 C 331.64888,232.22729 343.46383,244.15563 359.213,255.65988 C 365.37348,260.15991 373.6683,264.9802 375.24128,264.97439 C 375.57951,264.97314 377.89885,265.84931 380.39538,266.92142 C 382.89193,267.99356 389.36002,270.50328 394.76905,272.4986 C 416.40004,280.47792 425.40788,285.03576 425.40788,288.00142 C 425.40788,288.84762 424.98223,289.66897 424.46221,289.82664 C 423.94202,289.98433 420.2825,290.88853 416.32964,291.83597 C 392.59018,297.52616 388.55857,298.92648 385.21978,302.64127 C 383.05415,305.05077 380.03725,305.02417 374.9794,302.55102 C 372.83282,301.50136 370.85273,300.26423 370.57946,299.80184 C 370.30602,299.33942 368.30944,297.7756 366.14245,296.32668 C 363.97548,294.87775 357.95547,288.93627 352.76444,283.12339 C 347.57347,277.31052 339.04113,267.9138 333.80371,262.2418 C 328.56628,256.5698 322.64332,249.26024 320.64158,245.99836 C 318.63986,242.73645 316.04214,238.55418 314.86884,236.70443 C 313.69558,234.85469 311.13423,230.2287 309.177,226.42451 C 307.21976,222.62031 304.88716,218.26233 303.9934,216.74012 C 303.09967,215.21789 302.28218,211.8367 300.68152,210.2803 C 296.89896,206.6023 297.51489,206.99877 293.12659,205.05223 C 290.31416,203.80471 290.26847,205.45592 287.14092,201.10115 z "
       id="path2428"
       style="opacity:0.93155895;fill:#0000a6;fill-opacity:0.57205242"
       sodipodi:nodetypes="cssssssssssscssssssssssc" />
    <path
       d="M 192.79107,280.48115 C 198.40589,276.93643 218.09766,259.21518 230.46544,242.92361 C 241.59372,228.26478 248.5925,208.66301 248.5925,207.57452 C 248.5925,207.28592 247.93921,206.31516 247.14076,205.41733 C 246.34228,204.51942 245.46538,202.51754 245.19208,200.96867 C 244.73845,198.39805 244.9777,197.86587 247.93659,194.86397 C 251.83084,190.91306 256.07532,189.83427 259.80145,191.84837 C 268.98641,196.81312 275.07043,203.42873 275.07043,208.45142 C 275.07043,209.08893 272.39072,212.56977 269.11555,216.18682 C 265.84038,219.80378 262.92341,223.45792 258.18704,230.67075 C 241.58755,255.94949 231.97175,267.05472 219.12412,276.63672 C 210.56259,283.02206 190.59301,290.975 183.52347,290.94898 C 177.32234,290.92482 186.84393,284.23566 192.79107,280.48115 z "
       id="path2430"
       style="opacity:0.93155895;fill:#0000a6;fill-opacity:0.57205242"
       sodipodi:nodetypes="cssssssssssss" />
    <path
       d="M 375.0872,51.880259 C 375.0872,51.880259 371.30135,45.314134 369.69769,43.561508 C 368.17634,41.898855 366.07817,40.195578 365.50336,39.800853 C 364.75076,39.283962 366.36334,39.123637 367.05467,38.432323 C 368.11381,37.373187 362.52375,31.532386 361.52472,30.967421 C 360.26731,30.256245 357.41604,27.923673 357.41604,26.137699 C 357.41604,23.936339 359.77638,23.755608 361.92142,23.156208 C 364.04262,22.563456 369.20866,23.51864 370.18048,23.51864 C 372.54558,23.51864 377.53319,25.489154 379.0399,26.712799 C 379.70589,27.253634 380.45328,27.609315 381.63472,28.25036 C 382.81609,28.891338 384.56362,30.668605 386.45193,32.760163 C 390.55166,37.301068 390.9547,40.310448 387.7959,47.086622 C 384.12268,54.966265 379.69816,57.194919 375.0872,51.880259 z "
       id="path1318"
       style="opacity:1;fill:#000000;fill-opacity:1"
       sodipodi:nodetypes="csssssssssssc" />
    <path
       d="M 47.025363,218.17814 C 40.752695,215.36542 34.37413,205.10135 36.28397,200.89376 C 37.466249,198.2892 40.94897,197.05345 43.642786,198.28274 C 45.339636,199.05703 46.543504,199.05336 49.255259,198.26567 C 55.315886,196.50521 75.672143,188.78118 83.553214,185.25153 C 86.407592,183.97317 100.18752,178.68558 100.66465,178.68558 C 102.90883,178.68558 94.900137,186.17815 80.294673,197.74282 C 78.068859,199.50529 74.756241,202.24906 72.933417,203.84007 C 65.340092,210.46773 56.907116,217.36614 55.270585,218.28873 C 52.988245,219.57549 50.053756,219.53612 47.025363,218.17814 z "
       id="path1322"
       style="opacity:1;fill:#000000;fill-opacity:1" />
    <path
       d="M 28.967543,385.50558 C 34.582355,381.96086 54.274129,364.23961 66.641909,347.94803 C 77.77018,333.28923 84.768968,313.68745 84.768968,312.59896 C 84.768968,312.31036 84.115679,311.33959 83.317215,310.44177 C 82.518751,309.54386 81.641845,307.54197 81.368536,305.99309 C 80.914921,303.42248 81.154168,302.8903 84.11306,299.8884 C 88.007308,295.9375 92.251794,294.85871 95.977913,296.87281 C 105.16288,301.83754 111.2469,308.45316 111.2469,313.47586 C 111.2469,314.11336 108.56718,317.59422 105.29201,321.21124 C 102.01684,324.82821 99.099863,328.48236 94.363502,335.69519 C 77.764024,360.97393 68.148216,372.07916 55.300581,381.66114 C 46.739047,388.04648 26.769483,395.99943 19.699946,395.97342 C 13.498805,395.94925 23.020408,389.2601 28.967543,385.50558 z "
       id="path1324"
       style="opacity:1;fill:#000000;fill-opacity:1"
       sodipodi:nodetypes="cssssssssssss" />
    <path
       d="M 450.89671,127.22268 C 450.95645,126.24507 453.80905,123.61161 457.9187,120.35693 C 463.98097,115.55585 464.11512,114.51114 475.25836,105.46541 C 489.04569,94.273262 491.40252,91.99332 494.07123,87.266005 C 497.18776,81.745514 502.68112,80.856429 508.2937,83.530245 C 520.9415,89.555587 525.40762,92.208028 524.90644,100.40871 C 524.47686,107.44262 521.8304,108.05473 514.29801,106.9428 C 506.78982,105.83445 500.57067,109.96899 484.97866,117.96841 C 476.92445,122.10047 467.58284,127.1765 460.5464,128.35513 C 452.57404,129.6905 450.75896,129.4775 450.89671,127.22268 z "
       id="path1326"
       style="opacity:1;fill:#000000;fill-opacity:1"
       sodipodi:nodetypes="cssssssssc" />
    <path
       d="M 461.9696,250.82497 C 460.03644,246.47354 464.6606,243.97574 468.72732,243.97574 C 471.81777,243.97574 475.65206,244.24249 478.48882,246.03313 C 481.48903,247.92692 491.19835,259.97941 496.21615,267.19507 C 506.47756,281.95111 518.29252,293.87944 534.04169,305.3837 C 540.20216,309.88372 548.49698,314.70403 550.06996,314.69821 C 550.40819,314.69695 552.72753,315.57313 555.22407,316.64524 C 557.72061,317.71739 564.18871,320.2271 569.59774,322.22242 C 591.22873,330.20174 600.23656,334.75958 600.23656,337.72523 C 600.23656,338.57143 599.81092,339.39279 599.29089,339.55045 C 598.77071,339.70814 595.11119,340.61235 591.15832,341.55977 C 567.41886,347.24998 563.38726,348.6503 560.04846,352.36509 C 557.88284,354.7746 554.86594,354.74799 549.80809,352.27483 C 547.66151,351.22519 545.68142,349.98804 545.40815,349.52566 C 545.1347,349.06325 543.13811,347.49943 540.97114,346.0505 C 538.80417,344.60158 532.78415,338.66008 527.59312,332.84722 C 522.40215,327.03434 513.86981,317.63761 508.63239,311.96562 C 503.39496,306.29361 497.472,298.98405 495.47027,295.72219 C 493.46854,292.46027 490.87083,288.27801 489.69753,286.42825 C 488.52426,284.57851 485.96292,279.95252 484.00569,276.14834 C 482.04844,272.34413 479.71584,267.98615 478.82209,266.46394 C 477.92835,264.9417 477.11087,261.56052 475.51021,260.00412 C 471.72763,256.32612 472.34357,256.72259 467.95527,254.77604 C 465.14284,253.52854 465.09715,255.17974 461.9696,250.82497 z "
       id="path1328"
       style="opacity:1;fill:#000000;fill-opacity:1"
       sodipodi:nodetypes="cssssssssssscssssssssssc" />
    <path
       d="M 71.673738,87.321696 C 68.1449,85.303737 57.658271,76.628165 57.658271,75.726701 C 57.658271,75.043551 58.456411,74.835917 65.316114,73.734233 C 67.87615,73.323047 73.882768,71.923159 78.664178,70.623399 C 83.445655,69.323571 89.610185,67.867295 92.36323,67.387169 C 95.116256,66.907026 100.82255,65.877428 105.04387,65.099099 C 120.59377,62.23195 123.5693,61.727185 140.41622,59.098687 C 142.8022,58.726409 146.32062,58.415792 148.23499,58.408394 C 151.17198,58.397052 152.08704,58.068885 154.09327,56.307399 C 157.2803,53.509121 160.40622,53.863051 164.9098,57.531826 C 166.67181,58.96727 169.51574,61.250596 171.22971,62.605828 C 173.7334,64.585609 174.47089,65.655851 174.98163,68.050832 C 176.45434,74.955854 173.6341,79.751871 168.10097,79.751871 C 165.43798,79.751871 164.853,79.432054 161.91862,76.371811 C 157.86423,72.143479 156.38112,71.774942 143.41954,71.774671 C 132.04532,71.774467 119.52625,73.549301 106.04499,77.073379 C 95.521903,79.824144 90.549622,81.644825 82.42286,85.723051 C 78.726569,87.577897 75.471719,89.082825 75.189739,89.067351 C 74.907758,89.051859 73.325558,88.266337 71.673738,87.321696 z "
       id="path1620"
       style="opacity:1;fill:#000000;fill-opacity:1" />
    <path
       d="M 191.07929,421.32161 C 189.00721,418.21449 184.52044,416.01531 181.87192,413.68944 C 179.22337,411.36355 177.05638,408.96555 177.05638,408.36056 C 177.05638,407.75022 179.25735,406.97649 182.00044,406.62247 C 191.42334,405.40637 193.5561,406.92434 195.20103,405.52597 C 196.74592,404.21262 196.41302,378.51477 196.41302,355.37908 C 205.42152,360.63372 207.51222,360.40448 214.2686,353.41824 C 214.2686,373.16961 214.14529,413.53864 212.19166,417.77405 C 209.84517,422.86123 205.58737,434.81447 201.02247,436.84379 C 197.24736,438.52202 194.1892,425.98496 191.07929,421.32161 z "
       id="path1526"
       style="opacity:1;fill:url(#linearGradient2504);fill-opacity:1"
       sodipodi:nodetypes="cssssccsss" />
    <path
       d="M 370.36937,329.26167 C 366.45592,324.73467 364.89868,322.67099 364.89868,322.06923 C 364.89868,319.7623 370.62762,316.37438 374.50655,316.38742 C 378.64477,316.40131 385.29445,320.74254 388.54414,323.25217 C 391.89905,325.84306 392.27241,328.95328 389.95484,335.00468 C 388.63893,338.4406 388.41517,360.26839 388.41517,380.63801 C 388.41517,406.92352 387.03571,442.58051 385.34656,454.4703 C 383.87856,464.80351 379.59126,475.51357 376.97939,478.58626 C 374.27598,481.76663 372.86826,449.05449 372.58074,443.05362 C 372.39357,439.14712 372.2027,418.55982 372.2027,396.7326 C 372.2027,379.61665 371.54653,366.44595 371.23377,353.04169 C 371.23377,353.04169 371.03016,330.8317 370.36937,329.26167 z "
       id="path1565"
       style="opacity:1;fill:#000000;fill-opacity:1"
       sodipodi:nodetypes="cssssssssscc" />
    <path
       d="M 202.74168,135.03416 C 200.57941,134.74355 186.97933,131.51312 175.12236,124.91555 C 162.88094,118.10406 154.38319,108.83033 152.84852,108.62405 C 155.49029,108.16669 156.41011,109.13112 156.45033,108.40789 C 156.49056,107.68469 157.82601,105.58454 155.70678,104.5904 C 157.26318,104.79956 163.67165,113.40503 175.63586,120.51443 C 187.65099,127.65409 200.93503,130.28733 203.18672,130.58998 C 203.21016,130.34572 205.24116,128.91289 203.84608,127.04771 C 208.44482,129.20505 216.85005,134.4008 216.78127,134.93891 C 216.71249,135.47698 206.82084,137.92643 201.81266,138.79348 C 203.64513,137.47609 202.71193,135.30786 202.74168,135.03416 z "
       id="path1600"
       style="opacity:0.2243346;fill:#0000ff;fill-opacity:1"
       sodipodi:nodetypes="cscscsccccc" />
    <path
       d="M 150.54567,204.4486 C 146.23061,203.8009 109.17925,198.1735 106.11664,197.7138 C 111.41367,196.88046 111.07426,195.43381 106.86689,193.38047 C 109.97288,193.8467 146.56551,199.33727 151.05907,200.01176 C 151.08625,199.76789 153.13907,198.36651 151.77285,196.48008 C 156.33783,198.70792 164.66212,204.03241 164.58508,204.5694 C 164.50803,205.10636 154.57984,207.40326 149.55892,208.19316 C 151.41147,206.90413 150.51174,204.72179 150.54567,204.4486 z "
       id="path1602"
       style="opacity:0.2243346;fill:#0000ff;fill-opacity:1"
       sodipodi:nodetypes="cccccccc" />
    <path
       d="M 174.41988,311.41048 C 172.78012,312.8496 161.40911,320.97967 148.64503,325.58335 C 135.46708,330.33632 122.89267,330.64928 121.72884,331.67068 C 123.11978,329.37864 124.45119,329.31889 123.9324,328.81339 C 123.41363,328.30788 122.70786,325.92127 120.56598,326.8657 C 121.74628,325.8298 132.4442,326.65282 145.66458,322.30457 C 158.94125,317.93781 169.65441,309.65363 171.362,308.15501 C 171.19324,307.97686 171.44754,305.50436 169.12487,305.33058 C 173.77272,303.28119 183.2121,300.3586 183.57257,300.764 C 183.93301,301.1694 179.2804,310.2357 176.6435,314.58085 C 176.85436,312.33383 174.60667,311.61273 174.41988,311.41048 z "
       id="path1606"
       style="opacity:0.2243346;fill:#0000ff;fill-opacity:1"
       sodipodi:nodetypes="cscscsccccc" />
    <path
       d="M 258.88198,344.75751 C 256.27887,348.25937 233.86903,378.29719 232.02147,380.78262 C 233.78035,375.7171 232.34426,375.33541 228.55178,378.08044 C 230.4255,375.55979 252.49866,345.86225 255.20946,342.21555 C 255.0071,342.07676 254.73732,339.60588 252.42982,339.92298 C 256.54464,336.94461 265.16141,332.10776 265.59887,332.42855 C 266.03631,332.74935 263.3881,342.58967 261.72091,347.39113 C 261.45593,345.14987 259.10701,344.91608 258.88198,344.75751 z "
       id="path1608"
       style="opacity:0.2243346;fill:#0000ff;fill-opacity:1"
       sodipodi:nodetypes="cccccccc" />
    <path
       d="M 330.65761,298.59919 C 333.48544,301.92223 349.64554,318.07801 351.65258,320.43654 C 347.11144,317.58499 346.41697,318.89869 348.2402,323.21074 C 346.20473,320.81883 330.30061,305.06755 327.35584,301.60704 C 327.17515,301.77306 324.70679,301.48105 324.49759,303.80081 C 322.51937,299.12224 319.74116,289.63935 320.15203,289.28511 C 320.56287,288.93088 329.5571,293.72131 333.86151,296.42421 C 331.61799,296.17909 330.86267,298.41552 330.65761,298.59919 z "
       id="path1610"
       style="opacity:0.2243346;fill:#0000ff;fill-opacity:1"
       sodipodi:nodetypes="cccccccc" />
    <path
       d="M 322.99133,79.532538 C 326.65412,77.161177 358.14833,56.848998 360.74799,55.165957 C 357.32977,59.297393 358.54191,60.156905 363.05457,58.910303 C 360.41809,60.617202 329.35824,80.728227 325.54394,83.197657 C 325.68503,83.39842 325.07431,85.807772 327.34713,86.317079 C 322.4509,87.669623 312.6871,89.190179 312.38934,88.736717 C 312.09157,88.283273 318.01174,79.988908 321.2518,76.072842 C 320.71678,78.265377 322.8359,79.305298 322.99133,79.532538 z "
       id="path1621"
       style="opacity:0.2243346;fill:#0000ff;fill-opacity:1"
       sodipodi:nodetypes="cccccccc" />
    <path
       d="M 430.59668,172.29707 C 432.71317,171.76759 445.86911,167.04325 456.91792,159.16678 C 468.32502,151.0349 475.73759,140.87282 477.23975,140.497 C 474.56348,140.33655 473.75673,141.39737 473.63627,140.68314 C 473.51577,139.9689 471.95481,138.03047 473.95024,136.80659 C 472.42678,137.18773 467.01611,146.45311 455.91769,154.85017 C 444.77204,163.28298 431.86369,167.37865 429.65968,167.93008 C 429.6092,167.68992 427.43133,166.4921 428.61009,164.48323 C 424.28009,167.1391 416.50551,173.23821 416.63376,173.76531 C 416.762,174.29242 426.86485,175.62547 431.9384,175.92963 C 429.97068,174.82443 430.65671,172.56579 430.59668,172.29707 z "
       id="path1623"
       style="opacity:0.2243346;fill:#0000ff;fill-opacity:1"
       sodipodi:nodetypes="cscscsccccc" />
    <path
       d="M 441.09077,310.37502 C 443.06426,311.30521 456.23863,315.97786 469.77775,316.87654 C 483.75588,317.80438 495.92749,314.63168 497.32817,315.29184 C 495.35822,313.47322 494.06212,313.78354 494.42107,313.15445 C 494.78002,312.5253 494.79907,310.03658 497.11848,310.35262 C 495.69796,309.68308 485.64363,313.42918 471.73652,312.90202 C 457.77022,312.37268 445.18551,307.37015 443.13037,306.40155 C 443.2434,306.1837 442.31598,303.87765 444.50028,303.06902 C 439.46717,302.3833 429.58776,302.18187 429.35331,302.67108 C 429.11884,303.16028 436.09486,310.58859 439.82943,314.03628 C 439.00607,311.93496 440.96711,310.62101 441.09077,310.37502 z "
       id="path2506"
       style="opacity:0.2243346;fill:#0000ff;fill-opacity:1"
       sodipodi:nodetypes="cscscsccccc" />
    <text
       xml:space="preserve"
       style="font-size:36;font-style:normal;font-weight:normal;fill:#000000;fill-opacity:1;stroke:none;stroke-width:1px;stroke-linecap:butt;stroke-linejoin:miter;stroke-opacity:1;font-family:AR PL UKai TW;-inkscape-font-specification:AR PL UKai TW;font-stretch:normal;font-variant:normal"
       x="225.21782"
       y="438.87769"
       id="text2512"><tspan
         sodipodi:role="line"
         id="tspan2514"
         x="225.21782"
         y="438.87769"><tspan
   style="font-size:26"
   id="tspan2883">gōu </tspan>钩 </tspan></text>
    <text
       xml:space="preserve"
       style="font-size:36;font-style:normal;font-weight:normal;fill:#000000;fill-opacity:1;stroke:none;stroke-width:1px;stroke-linecap:butt;stroke-linejoin:miter;stroke-opacity:1;font-family:AR PL UKai TW;-inkscape-font-specification:AR PL UKai TW;font-stretch:normal;font-variant:normal"
       x="417.84198"
       y="438.87769"
       id="text2516"><tspan
         sodipodi:role="line"
         id="tspan2518"
         x="417.84198"
         y="438.87769"><tspan
   style="font-size:26"
   id="tspan2881">shù </tspan>竖</tspan></text>
    <text
       xml:space="preserve"
       style="font-size:36px;font-style:normal;font-variant:normal;font-weight:normal;font-stretch:normal;fill:#000000;fill-opacity:1;stroke:none;font-family:AR PL UKai TW;-inkscape-font-specification:AR PL UKai TW"
       x="537.84747"
       y="290.21304"
       id="text2520"><tspan
         sodipodi:role="line"
         id="tspan2522"
         x="537.84747"
         y="290.21304"><tspan
   style="font-size:26px"
   id="tspan2879">nà </tspan>捺</tspan></text>
    <text
       xml:space="preserve"
       style="font-size:36px;font-style:normal;font-variant:normal;font-weight:normal;font-stretch:normal;fill:#000000;fill-opacity:1;stroke:none;font-family:AR PL UKai TW;-inkscape-font-specification:AR PL UKai TW"
       x="522.69366"
       y="142.38548"
       id="text2524"><tspan
         sodipodi:role="line"
         id="tspan2526"
         x="522.69366"
         y="142.38548"><tspan
           style="font-size:36px;font-style:normal;font-variant:normal;font-weight:normal;font-stretch:normal;font-family:AR PL UKai TW;-inkscape-font-specification:AR PL UKai TW"
           id="tspan2855">撇</tspan><tspan
           style="font-size:26px"
           id="tspan2877"> piě</tspan></tspan></text>
    <text
       xml:space="preserve"
       style="font-size:36px;font-style:normal;font-variant:normal;font-weight:normal;font-stretch:normal;fill:#000000;fill-opacity:1;stroke:none;font-family:AR PL UKai TW;-inkscape-font-specification:AR PL UKai TW"
       x="407.82587"
       y="41.569744"
       id="text2528"><tspan
         sodipodi:role="line"
         x="407.82587"
         y="41.569744"
         id="tspan4290"
         style="font-size:36px;font-style:normal;font-variant:normal;font-weight:normal;font-stretch:normal;font-family:AR PL UKai TW;-inkscape-font-specification:AR PL UKai TW"><tspan
   style="font-size:26px"
   id="tspan2875"> diǎn </tspan>点</tspan></text>
    <text
       xml:space="preserve"
       style="font-size:36;font-style:normal;font-weight:normal;fill:#000000;fill-opacity:1;stroke:none;stroke-width:1px;stroke-linecap:butt;stroke-linejoin:miter;stroke-opacity:1;font-family:AR PL UKai TW;-inkscape-font-specification:AR PL UKai TW;font-stretch:normal;font-variant:normal"
       x="75.180168"
       y="46.098671"
       id="text2532"><tspan
         sodipodi:role="line"
         id="tspan2534"
         x="75.180168"
         y="46.098671"><tspan
   style="font-size:26"
   id="tspan2869">héng </tspan>横 </tspan></text>
    <text
       xml:space="preserve"
       style="font-size:36;font-style:normal;font-weight:normal;fill:#000000;fill-opacity:1;stroke:none;stroke-width:1px;stroke-linecap:butt;stroke-linejoin:miter;stroke-opacity:1;font-family:AR PL UKai TW;-inkscape-font-specification:AR PL UKai TW;font-stretch:normal;font-variant:normal"
       x="40.050095"
       y="169.20386"
       id="text2536"><tspan
         sodipodi:role="line"
         id="tspan2538"
         x="40.050095"
         y="169.20386">提<tspan
   style="font-size:26"
   id="tspan2871"> tí</tspan></tspan></text>
    <text
       xml:space="preserve"
       style="font-size:36;font-style:normal;font-weight:normal;fill:#000000;fill-opacity:1;stroke:none;stroke-width:1px;stroke-linecap:butt;stroke-linejoin:miter;stroke-opacity:1;font-family:AR PL UKai TW;-inkscape-font-specification:AR PL UKai TW;font-stretch:normal;font-variant:normal"
       x="34.763908"
       y="430.56805"
       id="text2540"><tspan
         sodipodi:role="line"
         id="tspan2542"
         x="34.763908"
         y="430.56805"><tspan
   style="font-size:26"
   id="tspan2885">wān </tspan>弯</tspan></text>
    <path
       style="fill:none;stroke:#ff0000;stroke-width:1.41732283;stroke-linecap:butt;stroke-linejoin:miter;stroke-opacity:0.41095892000000001;stroke-miterlimit:4;stroke-dasharray:4.2519685,4.2519685;marker-end:url(#Arrow2Mend);stroke-dashoffset:0"
       d="m 67.406143,97.269621 c 0,0 7.661158,4.229009 7.661158,4.229009 C 102.678,88.122796 135.56331,82.851894 168.94198,82.764505"
       id="path2891"
       sodipodi:nodetypes="csc" />
    <path
       style="fill:none;stroke:#ff0000;stroke-width:1.41732287;stroke-linecap:butt;stroke-linejoin:miter;stroke-miterlimit:4;stroke-opacity:0.41095892;stroke-dasharray:4.2519685, 4.2519685;stroke-dashoffset:0;marker-end:url(#Arrow2Mend)"
       d="m 48.634813,232.08192 4.39671,3.57357 39.118648,-32.58382"
       id="path2893"
       sodipodi:nodetypes="ccc" />
    <path
       style="fill:none;stroke:#ff0000;stroke-width:1.41732283;stroke-linecap:butt;stroke-linejoin:miter;stroke-opacity:0.41095892000000001;stroke-miterlimit:4;stroke-dasharray:4.2519685,4.2519685;marker-end:url(#Arrow2Mend);stroke-dashoffset:0"
       d="M 110.9215,328.49829 C 83.709173,376.02207 57.750965,396.50476 29.010239,404.43686"
       id="path2895"
       sodipodi:nodetypes="cc" />
    <path
       style="fill:none;stroke:#ff0000;stroke-width:1.41732283;stroke-linecap:butt;stroke-linejoin:miter;stroke-opacity:0.41095892000000001;stroke-miterlimit:4;stroke-dasharray:4.2519685,4.2519685;marker-end:url(#Arrow2Mend);stroke-dashoffset:0"
       d="m 390.8942,33.010239 c 8.20248,-1.892544 18.0311,10.20927 15.35836,17.918088 -3.71594,-3.715941 -6.13675,-6.136742 -12.79864,-6.825938"
       id="path2897"
       sodipodi:nodetypes="ccc" />
    <path
       style="fill:none;stroke:#ff0000;stroke-width:1.41732283;stroke-linecap:butt;stroke-linejoin:miter;stroke-opacity:0.41095892000000001;stroke-miterlimit:4;stroke-dasharray:4.2519685,4.2519685;marker-end:url(#Arrow2Mend);stroke-dashoffset:0"
       d="m 496.55972,69.296925 10.47248,2.647331 -49.72162,36.601824"
       id="path2899"
       sodipodi:nodetypes="ccc" />
    <path
       style="fill:none;stroke:#ff0000;stroke-width:1.41732283;stroke-linecap:butt;stroke-linejoin:miter;stroke-opacity:0.41095892000000001;stroke-miterlimit:4;stroke-dasharray:4.2519685,4.2519685;marker-end:url(#Arrow2Mend);stroke-dashoffset:0"
       d="m 457.33788,274.0273 c 1.1905,2.20254 9.26097,4.41992 10.55376,6.6448 21.86429,37.62853 57.53008,77.4035 79.03669,83.79889 10.31456,-5.91945 16.85358,-8.81847 29.01023,-8.53243"
       id="path2901"
       sodipodi:nodetypes="cscc" />
    <path
       style="fill:none;stroke:#ff0000;stroke-width:1.41732283;stroke-linecap:butt;stroke-linejoin:miter;stroke-opacity:0.41095892000000001;stroke-miterlimit:4;stroke-dasharray:4.2519685,4.2519685;marker-end:url(#Arrow2Mend);stroke-dashoffset:0"
       d="m 354.9488,328.4983 5.9727,8.53242 0,133.1058"
       id="path2903"
       sodipodi:nodetypes="ccc" />
    <path
       style="fill:none;stroke:#ff0000;stroke-width:1.41732283;stroke-linecap:butt;stroke-linejoin:miter;stroke-opacity:0.41095892000000001;stroke-miterlimit:4;stroke-dasharray:4.2519685,4.2519685;marker-end:url(#Arrow2Mend);stroke-dashoffset:0"
       d="m 221.843,371.16041 0,75.08532 c -1.22349,-7.02451 -2.3614,-14.13461 -10.2389,-14.50512"
       id="path2905"
       sodipodi:nodetypes="ccc" />
    <path
       id="path4435"
       d="m 401.39565,31.520549 2.38255,0 0,-8.223421 -2.59192,0.519824 0,-1.328448 2.57749,-0.519831 1.45841,0 0,9.551876 2.38255,0 0,1.227371 -6.20908,0 0,-1.227371"
       style="font-size:12px;font-style:normal;font-weight:normal;fill:#ff8080;fill-opacity:1;stroke:none;font-family:Bitstream Vera Sans" />
    <path
       id="path4431"
       style="font-size:12px;font-style:normal;font-weight:normal;fill:#ff8080;fill-opacity:1;stroke:none;font-family:Bitstream Vera Sans"
       d="m 126.52847,95.71472 0,4.021478 4.02146,0 0,1.227372 -4.02146,0 0,4.02146 -1.21294,0 0,-4.02146 -4.02146,0 0,-1.227372 4.02146,0 0,-4.021478 1.21294,0 m -13.3784,8.04294 5.09,0 0,1.22737 -6.84443,0 0,-1.22737 c 0.55352,-0.57279 1.3068,-1.3405 2.25982,-2.30314 0.95783,-0.96746 1.55948,-1.590792 1.80496,-1.869952 0.46688,-0.524636 0.79178,-0.967451 0.97468,-1.328457 0.18771,-0.365804 0.28157,-0.724378 0.28158,-1.075746 -1e-5,-0.572775 -0.20216,-1.039665 -0.60647,-1.40066 -0.3995,-0.360984 -0.92174,-0.541482 -1.56671,-0.541493 -0.45726,1.1e-5 -0.94099,0.07944 -1.45119,0.238254 -0.50539,0.158854 -1.04688,0.399517 -1.62447,0.72199 l 0,-1.472853 c 0.58722,-0.235833 1.13592,-0.413921 1.64613,-0.534264 0.5102,-0.120386 0.97708,-0.180486 1.40065,-0.180497 1.11667,1.1e-5 2.00712,0.279175 2.67135,0.837502 0.66422,0.558339 0.99633,1.304393 0.99634,2.238153 -1e-5,0.442837 -0.0842,0.863987 -0.25269,1.263482 -0.16366,0.394688 -0.46449,0.861569 -0.90249,1.400639 -0.12033,0.1396 -0.50299,0.543902 -1.14795,1.212952 -0.64498,0.66422 -1.55468,1.59558 -2.72911,2.79409" />
    <path
       id="path4425"
       style="font-size:12px;font-style:normal;font-weight:normal;fill:#ff8080;fill-opacity:1;stroke:none;font-family:Bitstream Vera Sans"
       d="m 351.37508,383.82214 0,4.02146 4.02146,0 0,1.22737 -4.02146,0 0,4.02146 -1.21294,0 0,-4.02146 -4.02146,0 0,-1.22737 4.02146,0 0,-4.02146 1.21294,0 m -10.2161,3.4583 c 0.69791,0.14922 1.24181,0.45967 1.63169,0.93136 0.39468,0.47171 0.59202,1.0541 0.59203,1.74721 -10e-6,1.06373 -0.36582,1.8868 -1.09742,2.4692 -0.73162,0.58239 -1.77128,0.87359 -3.11898,0.87359 -0.45245,0 -0.91933,-0.0457 -1.40065,-0.13718 -0.47651,-0.0866 -0.96987,-0.21899 -1.48007,-0.39708 l 0,-1.40787 c 0.40431,0.23586 0.84713,0.41394 1.32845,0.53426 0.48132,0.12039 0.9843,0.1805 1.50895,0.1805 0.91451,0 1.61002,-0.18049 2.08654,-0.54148 0.48132,-0.361 0.72198,-0.88563 0.72199,-1.57394 -10e-6,-0.63534 -0.22383,-1.1311 -0.67145,-1.48729 -0.44282,-0.36098 -1.06133,-0.54148 -1.85551,-0.54148 l -1.25625,0 0,-1.1985 1.31401,0 c 0.71717,10e-6 1.26588,-0.14199 1.64613,-0.42597 0.38024,-0.28879 0.57036,-0.70273 0.57037,-1.24182 -10e-6,-0.55351 -0.19735,-0.97709 -0.59203,-1.27069 -0.38988,-0.29842 -0.95062,-0.44763 -1.68223,-0.44764 -0.3995,1e-5 -0.82787,0.0433 -1.28513,0.12996 -0.45726,0.0866 -0.96024,0.22143 -1.50895,0.40431 l 0,-1.29957 c 0.55352,-0.15401 1.07094,-0.26953 1.55227,-0.34655 0.48613,-0.077 0.94339,-0.11546 1.37177,-0.11546 1.10704,2e-5 1.98305,0.25271 2.62803,0.7581 0.64497,0.50057 0.96745,1.17924 0.96746,2.03599 -10e-6,0.59685 -0.17087,1.10224 -0.51261,1.51617 -0.34174,0.40912 -0.82788,0.6931 -1.45841,0.85194 m -11.58787,-3.45837 0,4.02146 4.02146,0 0,1.22737 -4.02146,0 0,4.02146 -1.21294,0 0,-4.02146 -4.02146,0 0,-1.22737 4.02146,0 0,-4.02146 1.21294,0" />
    <path
       id="path4419"
       style="font-size:12px;font-style:normal;font-weight:normal;fill:#ff8080;fill-opacity:1;stroke:none;font-family:Bitstream Vera Sans"
       d="m 241.77134,396.09402 -3.68213,5.75423 3.68213,0 0,-5.75423 m -0.38265,-1.2707 1.83384,0 0,7.02493 1.53783,0 0,1.21293 -1.53783,0 0,2.54138 -1.45119,0 0,-2.54138 -4.86618,0 0,-1.40787 4.48353,-6.82999 m -10.79369,1.50895 0,4.02147 4.02146,0 0,1.22737 -4.02146,0 0,4.02145 -1.21294,0 0,-4.02145 -4.02146,0 0,-1.22737 4.02146,0 0,-4.02147 1.21294,0" />
    <path
       id="path4415"
       style="font-size:12px;font-style:normal;font-weight:normal;fill:#ff8080;fill-opacity:1;stroke:none;font-family:Bitstream Vera Sans"
       d="m 87.572835,225.10179 0,4.02148 4.02146,0 0,1.22737 -4.02146,0 0,4.02146 -1.212936,0 0,-4.02146 -4.021461,0 0,-1.22737 4.021461,0 0,-4.02148 1.212936,0 m -14.620214,-1.50894 5.725349,0 0,1.22738 -4.389673,0 0,2.64247 c 0.211778,-0.0722 0.42356,-0.12514 0.635347,-0.15885 0.211777,-0.0384 0.423559,-0.0578 0.635347,-0.0578 1.203304,0 2.156324,0.3297 2.859063,0.98911 0.702726,0.65942 1.054091,1.55228 1.0541,2.67857 -9e-6,1.16 -0.361001,2.06248 -1.082978,2.70746 -0.721994,0.64015 -1.739991,0.96023 -3.054001,0.96023 -0.452447,0 -0.914518,-0.0384 -1.386213,-0.11546 -0.466886,-0.077 -0.950617,-0.19253 -1.45119,-0.34656 l 0,-1.46562 c 0.433189,0.23585 0.88082,0.41152 1.342892,0.52704 0.462069,0.11546 0.950612,0.17328 1.465631,0.17328 0.832687,0 1.492098,-0.21899 1.978241,-0.657 0.486131,-0.43801 0.7292,-1.03244 0.729206,-1.78331 -6e-6,-0.75085 -0.243075,-1.34529 -0.729206,-1.78331 -0.486143,-0.438 -1.145554,-0.65699 -1.978241,-0.65701 -0.389876,2e-5 -0.779748,0.0434 -1.169616,0.12996 -0.385061,0.0866 -0.779746,0.22142 -1.184058,0.40433 l 0,-5.41491" />
    <path
       id="path4409"
       style="font-size:12px;font-style:normal;font-weight:normal;fill:#ff8080;fill-opacity:1;stroke:none;font-family:Bitstream Vera Sans"
       d="m 101.9853,371.75101 c -0.65461,0 -1.17444,0.22382 -1.55949,0.67145 -0.38025,0.44763 -0.570375,1.06132 -0.570372,1.84106 -3e-6,0.77494 0.190122,1.38862 0.570372,1.84106 0.38505,0.44764 0.90488,0.67144 1.55949,0.67144 0.65459,0 1.17201,-0.2238 1.55226,-0.67144 0.38506,-0.45244 0.57759,-1.06612 0.57759,-1.84106 0,-0.77974 -0.19253,-1.39343 -0.57759,-1.84106 -0.38025,-0.44763 -0.89767,-0.67145 -1.55226,-0.67145 m 2.89516,-4.57017 0,1.32845 c -0.36581,-0.17326 -0.73643,-0.30562 -1.11186,-0.39709 -0.37063,-0.0914 -0.73884,-0.13717 -1.10464,-0.13718 -0.96265,1e-5 -1.69908,0.3249 -2.20927,0.97469 -0.505398,0.64979 -0.794192,1.63169 -0.866387,2.94571 0.283978,-0.41875 0.640157,-0.73884 1.068537,-0.96025 0.42838,-0.22621 0.90007,-0.33934 1.41509,-0.33934 1.08298,0 1.93733,0.32971 2.56305,0.98912 0.63053,0.65462 0.9458,1.54745 0.9458,2.67857 0,1.10705 -0.3273,1.99509 -0.9819,2.66413 -0.6546,0.66904 -1.5258,1.00355 -2.61358,1.00355 -1.24664,0 -2.199657,-0.4765 -2.859068,-1.42952 -0.659416,-0.95784 -0.989121,-2.34404 -0.989121,-4.15864 0,-1.70388 0.40431,-3.06121 1.212936,-4.072 0.808623,-1.01558 1.894003,-1.52338 3.256153,-1.52339 0.3658,10e-6 0.73402,0.0361 1.10464,0.10827 0.37543,0.0722 0.7653,0.18051 1.16962,0.32489 m -13.363958,1.27068 0,4.02148 4.02146,0 0,1.22737 -4.02146,0 0,4.02146 -1.212936,0 0,-4.02146 -4.021461,0 0,-1.22737 4.021461,0 0,-4.02148 1.212936,0" />
    <path
       id="path4407"
       d="m 469.88738,74.845213 6.93106,0 0,0.62091 -3.91316,10.15834 -1.52339,0 3.68212,-9.55187 -5.17663,0 0,-1.22738"
       style="font-size:12px;font-style:normal;font-weight:normal;fill:#ff8080;fill-opacity:1;stroke:none;font-family:Bitstream Vera Sans" />
    <path
       id="path4360"
       style="font-size:12px;font-style:normal;font-weight:normal;fill:#ff8080;fill-opacity:1;stroke:none;font-family:Bitstream Vera Sans"
       d="m 490.43941,331.07033 c -0.69311,10e-6 -1.23941,0.18531 -1.6389,0.55594 -0.39469,0.37061 -0.59203,0.88081 -0.59203,1.53059 0,0.6498 0.19734,1.16 0.59203,1.53061 0.39949,0.37063 0.94579,0.55593 1.6389,0.55593 0.6931,0 1.23941,-0.1853 1.63891,-0.55593 0.39949,-0.37543 0.59924,-0.88563 0.59925,-1.53061 -10e-6,-0.64978 -0.19976,-1.15998 -0.59925,-1.53059 -0.39469,-0.37063 -0.94099,-0.55593 -1.63891,-0.55594 m -1.45841,-0.62091 c -0.62572,-0.15402 -1.11426,-0.44522 -1.46563,-0.8736 -0.34655,-0.42838 -0.51983,-0.95062 -0.51983,-1.56671 0,-0.86156 0.30564,-1.54264 0.91692,-2.04322 0.6161,-0.50057 1.45841,-0.75085 2.52695,-0.75086 1.07335,10e-6 1.91567,0.25029 2.52695,0.75086 0.61128,0.50058 0.91692,1.18166 0.91693,2.04322 -10e-6,0.61609 -0.17569,1.13833 -0.52705,1.56671 -0.34656,0.42838 -0.83029,0.71958 -1.4512,0.8736 0.70273,0.16365 1.24903,0.48374 1.63891,0.96024 0.39468,0.47653 0.59202,1.05892 0.59203,1.7472 -1e-5,1.04448 -0.32009,1.84588 -0.96024,2.40423 -0.63535,0.55833 -1.54746,0.83749 -2.73633,0.83749 -1.18887,0 -2.10338,-0.27916 -2.74354,-0.83749 -0.63535,-0.55835 -0.95302,-1.35975 -0.95302,-2.40423 0,-0.68828 0.19734,-1.27067 0.59202,-1.7472 0.39469,-0.4765 0.9434,-0.79659 1.64613,-0.96024 m -0.53427,-2.30313 c 0,0.55835 0.17328,0.99393 0.51983,1.30679 0.35137,0.31287 0.84231,0.4693 1.47285,0.46929 0.62572,10e-6 1.11426,-0.15642 1.46563,-0.46929 0.35618,-0.31286 0.53427,-0.74844 0.53427,-1.30679 0,-0.55833 -0.17809,-0.99393 -0.53427,-1.3068 -0.35137,-0.31285 -0.83991,-0.46927 -1.46563,-0.46929 -0.63054,2e-5 -1.12148,0.15644 -1.47285,0.46929 -0.34655,0.31287 -0.51983,0.74847 -0.51983,1.3068" />
    <path
       id="path4435-0"
       d="m -63.616017,87.831799 2.382551,0 0,-8.223421 -2.591928,0.519824 0,-1.328448 2.57749,-0.519831 1.45841,0 0,9.551876 2.382554,0 0,1.227371 -6.209077,0 0,-1.227371"
       style="font-size:12px;font-style:normal;font-weight:normal;fill:#ff8080;fill-opacity:1;stroke:none;font-family:Bitstream Vera Sans" />
    <path
       id="path4431-6"
       style="font-size:12px;font-style:normal;font-weight:normal;fill:#ff8080;fill-opacity:1;stroke:none;font-family:Bitstream Vera Sans"
       d="m -49.23406,98.271704 0,4.021476 4.02146,0 0,1.22737 -4.02146,0 0,4.02146 -1.212936,0 0,-4.02146 -4.021461,0 0,-1.22737 4.021461,0 0,-4.021476 1.212936,0 m -13.378397,8.042936 5.089999,0 0,1.22737 -6.844425,0 0,-1.22737 c 0.55352,-0.57279 1.306791,-1.3405 2.259815,-2.30314 0.95783,-0.96746 1.559485,-1.59078 1.804965,-1.86995 0.466878,-0.52463 0.791772,-0.96745 0.97468,-1.32845 0.18771,-0.36581 0.281569,-0.72438 0.281576,-1.075751 -7e-6,-0.572775 -0.202163,-1.039665 -0.606469,-1.40066 -0.399505,-0.360984 -0.921739,-0.541482 -1.566709,-0.541493 -0.457261,1.1e-5 -0.940992,0.07944 -1.451191,0.238254 -0.505392,0.158854 -1.046881,0.399517 -1.624469,0.72199 l 0,-1.472853 c 0.587213,-0.235833 1.135922,-0.413921 1.646128,-0.534264 0.510201,-0.120386 0.977083,-0.180486 1.400653,-0.180497 1.116665,1.1e-5 2.007114,0.279175 2.671346,0.837502 0.664221,0.558339 0.996334,1.304393 0.996341,2.238153 -7e-6,0.442839 -0.08424,0.863989 -0.252694,1.263479 -0.163658,0.39469 -0.464485,0.86157 -0.902483,1.40064 -0.120335,0.1396 -0.502989,0.5439 -1.147958,1.21295 -0.644978,0.66422 -1.55468,1.59558 -2.729105,2.79409" />
    <path
       id="path4425-4"
       style="font-size:12px;font-style:normal;font-weight:normal;fill:#ff8080;fill-opacity:1;stroke:none;font-family:Bitstream Vera Sans"
       d="m -36.844784,116.75455 0,4.02147 4.021461,0 0,1.22737 -4.021461,0 0,4.02146 -1.212936,0 0,-4.02146 -4.021461,0 0,-1.22737 4.021461,0 0,-4.02147 1.212936,0 m -10.2161,3.45831 c 0.697914,0.14922 1.241809,0.45967 1.631688,0.93136 0.394678,0.47171 0.59202,1.0541 0.592029,1.74721 -9e-6,1.06373 -0.365814,1.8868 -1.097418,2.4692 -0.731619,0.58239 -1.771277,0.87359 -3.118979,0.87359 -0.452448,0 -0.919331,-0.0457 -1.400653,-0.13718 -0.476512,-0.0866 -0.96987,-0.21899 -1.48007,-0.39708 l 0,-1.40787 c 0.40431,0.23586 0.847128,0.41394 1.328454,0.53426 0.481321,0.12039 0.984303,0.1805 1.50895,0.1805 0.91451,0 1.610023,-0.18049 2.086539,-0.54148 0.481317,-0.361 0.721978,-0.88563 0.721986,-1.57394 -8e-6,-0.63534 -0.223822,-1.1311 -0.671447,-1.48729 -0.442824,-0.36098 -1.061325,-0.54148 -1.855505,-0.54148 l -1.256254,0 0,-1.1985 1.314014,0 c 0.717167,1e-5 1.265877,-0.14199 1.646128,-0.42597 0.380239,-0.28879 0.570362,-0.70273 0.570369,-1.24182 -7e-6,-0.55351 -0.19735,-0.9771 -0.592028,-1.2707 -0.389879,-0.29842 -0.95062,-0.44763 -1.682229,-0.44764 -0.399502,1e-5 -0.827879,0.0433 -1.285132,0.12996 -0.457261,0.0866 -0.960244,0.22143 -1.508952,0.40431 l 0,-1.29957 c 0.55352,-0.15401 1.070943,-0.26953 1.55227,-0.34655 0.486133,-0.077 0.943391,-0.11546 1.371773,-0.11546 1.10704,2e-5 1.983048,0.25271 2.628029,0.7581 0.644966,0.50057 0.967452,1.17924 0.967461,2.036 -9e-6,0.59685 -0.170878,1.10224 -0.512611,1.51617 -0.341747,0.40912 -0.827883,0.6931 -1.458412,0.85194 m -11.587871,-3.45838 0,4.02147 4.02146,0 0,1.22737 -4.02146,0 0,4.02146 -1.212936,0 0,-4.02146 -4.021461,0 0,-1.22737 4.021461,0 0,-4.02147 1.212936,0" />
    <path
       id="path4419-3"
       style="font-size:12px;font-style:normal;font-weight:normal;fill:#ff8080;fill-opacity:1;stroke:none;font-family:Bitstream Vera Sans"
       d="m -47.472415,134.99914 -3.682127,5.75423 3.682127,0 0,-5.75423 m -0.382653,-1.2707 1.833844,0 0,7.02493 1.537829,0 0,1.21293 -1.537829,0 0,2.54138 -1.451191,0 0,-2.54138 -4.866185,0 0,-1.40787 4.483532,-6.82999 m -10.793687,1.50895 0,4.02147 4.02146,0 0,1.22737 -4.02146,0 0,4.02145 -1.212936,0 0,-4.02145 -4.021461,0 0,-1.22737 4.021461,0 0,-4.02147 1.212936,0" />
    <path
       id="path4415-7"
       style="font-size:12px;font-style:normal;font-weight:normal;fill:#ff8080;fill-opacity:1;stroke:none;font-family:Bitstream Vera Sans"
       d="m -49.23406,153.72022 0,4.02148 4.02146,0 0,1.22737 -4.02146,0 0,4.02146 -1.212936,0 0,-4.02146 -4.021461,0 0,-1.22737 4.021461,0 0,-4.02148 1.212936,0 m -14.620214,-1.50894 5.725349,0 0,1.22738 -4.389673,0 0,2.64247 c 0.211778,-0.0722 0.42356,-0.12514 0.635347,-0.15885 0.211777,-0.0384 0.423559,-0.0578 0.635347,-0.0578 1.203304,0 2.156324,0.3297 2.859063,0.98911 0.702726,0.65942 1.054091,1.55228 1.0541,2.67857 -9e-6,1.16 -0.361001,2.06248 -1.082978,2.70746 -0.721994,0.64015 -1.739991,0.96023 -3.054001,0.96023 -0.452447,0 -0.914518,-0.0384 -1.386213,-0.11546 -0.466886,-0.077 -0.950617,-0.19253 -1.45119,-0.34656 l 0,-1.46562 c 0.433189,0.23585 0.88082,0.41152 1.342892,0.52704 0.462069,0.11546 0.950612,0.17328 1.465631,0.17328 0.832687,0 1.492098,-0.21899 1.978241,-0.657 0.486131,-0.43801 0.7292,-1.03244 0.729206,-1.78331 -6e-6,-0.75085 -0.243075,-1.34529 -0.729206,-1.78331 -0.486143,-0.438 -1.145554,-0.65699 -1.978241,-0.65701 -0.389876,2e-5 -0.779748,0.0434 -1.169616,0.12996 -0.385061,0.0866 -0.779746,0.22142 -1.184058,0.40433 l 0,-5.41491" />
    <path
       id="path4409-5"
       style="font-size:12px;font-style:normal;font-weight:normal;fill:#ff8080;fill-opacity:1;stroke:none;font-family:Bitstream Vera Sans"
       d="m -48.179961,175.50254 c -0.654604,0 -1.174435,0.22382 -1.55949,0.67145 -0.380248,0.44763 -0.570371,1.06132 -0.570368,1.84106 -3e-6,0.77494 0.19012,1.38862 0.570368,1.84106 0.385055,0.44764 0.904886,0.67144 1.55949,0.67144 0.654595,0 1.172017,-0.2238 1.552269,-0.67144 0.385053,-0.45244 0.577581,-1.06612 0.577589,-1.84106 -8e-6,-0.77974 -0.192536,-1.39343 -0.577589,-1.84106 -0.380252,-0.44763 -0.897674,-0.67145 -1.552269,-0.67145 m 2.895163,-4.57017 0,1.32845 c -0.365813,-0.17326 -0.736433,-0.30562 -1.111859,-0.39709 -0.370625,-0.0914 -0.738837,-0.13717 -1.104637,-0.13718 -0.962653,1e-5 -1.699078,0.3249 -2.209276,0.97469 -0.505395,0.64979 -0.794189,1.63169 -0.866384,2.94571 0.283978,-0.41875 0.640157,-0.73884 1.068539,-0.96025 0.428374,-0.22621 0.90007,-0.33934 1.415092,-0.33934 1.082973,0 1.937322,0.32971 2.56305,0.98912 0.630526,0.65462 0.945793,1.54745 0.945801,2.67857 -8e-6,1.10705 -0.327309,1.99509 -0.9819,2.66413 -0.654609,0.66904 -1.525803,1.00355 -2.613589,1.00355 -1.246633,0 -2.199653,-0.4765 -2.859064,-1.42952 -0.659416,-0.95784 -0.989121,-2.34404 -0.989121,-4.15864 0,-1.70388 0.40431,-3.06121 1.212936,-4.072 0.808622,-1.01558 1.894005,-1.52338 3.256158,-1.52339 0.365799,1e-5 0.734012,0.0361 1.104637,0.10827 0.375426,0.0722 0.765298,0.18051 1.169617,0.32489 m -13.363957,1.27068 0,4.02148 4.02146,0 0,1.22737 -4.02146,0 0,4.02146 -1.212936,0 0,-4.02146 -4.021461,0 0,-1.22737 4.021461,0 0,-4.02148 1.212936,0" />
    <path
       id="path4407-8"
       d="m -64.236926,189.17695 6.931064,0 0,0.62091 -3.913163,10.15834 -1.52339,0 3.682127,-9.55187 -5.176638,0 0,-1.22738"
       style="font-size:12px;font-style:normal;font-weight:normal;fill:#ff8080;fill-opacity:1;stroke:none;font-family:Bitstream Vera Sans" />
    <path
       id="path4360-1"
       style="font-size:12px;font-style:normal;font-weight:normal;fill:#ff8080;fill-opacity:1;stroke:none;font-family:Bitstream Vera Sans"
       d="m -60.749735,213.32016 c -0.693109,1e-5 -1.239412,0.18531 -1.638907,0.55594 -0.394687,0.37061 -0.59203,0.88081 -0.592028,1.53059 -2e-6,0.6498 0.197341,1.16 0.592028,1.53061 0.399495,0.37063 0.945798,0.55593 1.638907,0.55593 0.693102,0 1.239404,-0.1853 1.638909,-0.55593 0.399491,-0.37543 0.59924,-0.88563 0.599248,-1.53061 -8e-6,-0.64978 -0.199757,-1.15998 -0.599248,-1.53059 -0.394692,-0.37063 -0.940995,-0.55593 -1.638909,-0.55594 m -1.45841,-0.62091 c -0.625725,-0.15402 -1.114267,-0.44522 -1.465631,-0.8736 -0.346556,-0.42838 -0.519831,-0.95062 -0.51983,-1.56671 -10e-7,-0.86156 0.305638,-1.54264 0.916921,-2.04322 0.616093,-0.50057 1.458408,-0.75085 2.52695,-0.75086 1.073347,1e-5 1.915663,0.25029 2.526952,0.75086 0.611272,0.50058 0.916913,1.18166 0.916921,2.04322 -8e-6,0.61609 -0.17569,1.13833 -0.527049,1.56671 -0.346561,0.42838 -0.830291,0.71958 -1.451192,0.8736 0.702726,0.16365 1.249028,0.48374 1.638908,0.96024 0.394677,0.47653 0.592021,1.05892 0.592027,1.7472 -6e-6,1.04448 -0.320087,1.84588 -0.960239,2.40423 -0.635355,0.55833 -1.547463,0.83749 -2.736328,0.83749 -1.188873,0 -2.103387,-0.27916 -2.743545,-0.83749 -0.635349,-0.55835 -0.953022,-1.35975 -0.953022,-2.40423 0,-0.68828 0.197342,-1.27067 0.592028,-1.7472 0.394684,-0.4765 0.943393,-0.79659 1.646129,-0.96024 m -0.53427,-2.30313 c -2e-6,0.55835 0.173274,0.99393 0.51983,1.30679 0.351363,0.31287 0.842312,0.4693 1.47285,0.46929 0.625717,1e-5 1.11426,-0.15642 1.465632,-0.46929 0.356174,-0.31286 0.534262,-0.74844 0.534269,-1.30679 -7e-6,-0.55833 -0.178095,-0.99393 -0.534269,-1.3068 -0.351372,-0.31285 -0.839915,-0.46927 -1.465632,-0.46929 -0.630538,2e-5 -1.121487,0.15644 -1.47285,0.46929 -0.346556,0.31287 -0.519832,0.74847 -0.51983,1.3068" />
  </g>
</svg>
